<svg id="Layer_1" data-name="Layer 1" xmlns="http://www.w3.org/2000/svg" viewBox="0 0 95.06 122.88"><defs><style>.cls-1{fill-rule:evenodd;}</style></defs><title>mobile-camera</title><path class="cls-1" d="M57.61,0A14.34,14.34,0,0,1,71.94,14.33V28.92H67.83V18H4.13v84.76H67.85V88.33H72v20.22a14.34,14.34,0,0,1-14.33,14.33H14.33A14.34,14.34,0,0,1,0,108.55V14.33A14.34,14.34,0,0,1,14.33,0Zm4.93,40H81.2l4.25,7.57h8.76a.85.85,0,0,1,.85.84V78a.87.87,0,0,1-.85.85H43.34a.88.88,0,0,1-.85-.85V48.42a.85.85,0,0,1,.85-.84h3.94V44.86h4.87v2.72h5.28l3.3-6.52C61.4,39.74,61,40,62.54,40Zm27,11.31a2.53,2.53,0,1,1-2.52,2.52,2.52,2.52,0,0,1,2.52-2.52ZM71,54.26a7.65,7.65,0,1,1-7.65,7.65A7.65,7.65,0,0,1,71,54.26Zm0-5A12.63,12.63,0,1,1,58.37,61.91,12.63,12.63,0,0,1,71,49.28Zm-35,58a5.88,5.88,0,1,1-5.87,5.88A5.88,5.88,0,0,1,36,107.27Z"/></svg>